<?xml version="1.0" encoding="UTF-8"?>
<svg version="1.1" xmlns="http://www.w3.org/2000/svg" width="1920" height="1080">
<path d="M0 0 C633.6 0 1267.2 0 1920 0 C1920 356.4 1920 712.8 1920 1080 C1286.4 1080 652.8 1080 0 1080 C0 723.6 0 367.2 0 0 Z " fill="#F3F7F9" transform="translate(0,0)"/>
<path d="M0 0 C0.66 0 1.32 0 2 0 C2 0.66 2 1.32 2 2 C3.85625 2.061875 3.85625 2.061875 5.75 2.125 C20.34375869 3.94353691 30.65441781 14.84593102 39.44580078 25.80175781 C90.67001757 93.83302445 108.44709111 195.90606443 169.58063889 503.87272263 C169.99015435 506.31625217 170.40077152 508.75959454 170.81155396 511.20291138 C174.02129531 530.31800845 177.00224042 549.45033978 179.67618179 568.6480751 C180.66596192 575.74769828 181.75781176 582.81721547 182.98381042 589.87936401 C183.8940717 595.18440493 184.62217572 600.50364303 185.32421875 605.83984375 C187.06727482 618.84337326 189.1240251 631.79415985 191.1875 644.75 C191.7390652 648.21925121 192.28992969 651.68860823 192.83894348 655.15826416 C193.17681547 657.29307297 193.51618156 659.42764599 193.85722351 661.56195068 C194.00770645 662.51184875 194.15818939 663.46174683 194.31323242 664.44042969 C194.44630295 665.27564148 194.57937347 666.11085327 194.71647644 666.97137451 C195 669 195 669 195 671 C699.9 671 1204.8 671 1725 671 C1725 670.34 1725 669.68 1725 669 C1725.66 669 1726.32 669 1727 669 C1727.04558548 668.00040253 1727.09117096 667.00080505 1727.13813782 665.97091675 C1727.6994727 654.70173531 1728.88552197 643.57420278 1730.29296875 632.3828125 C1730.52416675 630.51476643 1730.75497674 628.6466723 1730.98542786 626.77853394 C1731.46873712 622.87015359 1731.95570462 618.96225309 1732.44555664 615.0546875 C1733.05525583 610.1899792 1733.65744042 605.32438055 1734.25705147 600.4584198 C1737.38560472 575.09204677 1740.7737638 549.769535 1744.36734009 524.46502686 C1745.04809122 519.66849688 1745.71572767 514.87019069 1746.38075256 510.07145691 C1758.9626502 419.36736316 1774.0540605 328.59790026 1831 123 C1831.62358398 121.38641602 1831.62358398 121.38641602 1832.25976562 119.74023438 C1843.19567484 91.69570275 1855.53993422 65.08641572 1873.57421875 40.91455078 C1874.71838282 39.37815787 1875.84627607 37.82965393 1876.96875 36.27734375 C1886.09183827 23.95670248 1899.11456565 10.80336705 1914 6 C1915.67527247 6.28696869 1917.34439027 6.61549344 1919 7 C1919.01473161 93.47208287 1919.02942602 179.94416612 1919.04234314 308.76289368 C1919.04248259 310.26622483 1919.04262204 311.76955598 1919.04276149 313.27288713 C1919.04568421 344.82852694 1919.04840092 376.38416676 1919.05087968 407.9398066 C1919.05212507 423.79135947 1919.05341004 439.64291234 1919.05473244 455.49446521 C1919.05493169 457.88560517 1919.05512981 460.27674513 1919.05532788 462.6678851 C1919.05838769 499.48602846 1919.06229618 536.3041715 1919.06866455 573.12231445 C1919.06880145 573.91387671 1919.06893835 574.70543897 1919.0690794 575.52098796 C1919.07129175 588.28323309 1919.07357537 601.04547821 1919.07586844 613.80772333 C1919.08247249 650.56903181 1919.08854923 687.33034004 1919.09113979 724.09164906 C1919.09119333 724.84769497 1919.09124686 725.60374088 1919.09130202 726.38269728 C1919.09246781 742.98016513 1919.09336265 759.57763298 1919.09400098 776.17510086 C1919.0942626 782.85347211 1919.09456322 789.53184336 1919.09487724 796.21021461 C1919.09491067 796.94113097 1919.0949441 797.67204732 1919.09497854 798.42511266 C1919.09607477 821.97114699 1919.10034513 845.51717943 1919.10628221 869.06321299 C1919.11241486 893.44412626 1919.11501424 917.82503738 1919.11350138 942.20595142 C1919.11273976 956.26489766 1919.11477785 970.32383706 1919.12079754 984.38278207 C1919.12454322 993.77067318 1919.12466661 1003.15855979 1919.12183181 1012.54645121 C1919.12032 1017.89772848 1919.12039532 1023.24899279 1919.12488318 1028.60026868 C1919.12893713 1033.4711319 1919.12836271 1038.34197208 1919.12413998 1043.21283495 C1919.12342736 1044.96149153 1919.12438163 1046.71014981 1919.12723524 1048.4588042 C1919.13087671 1050.84186525 1919.12825612 1053.22484589 1919.1241985 1055.60790461 C1919.12435448 1056.92484902 1919.12451046 1058.24179343 1919.12467116 1059.59864525 C1918.9600929 1065.4088686 1918.44580252 1071.20456719 1918 1077 C1285.06 1077 652.12 1077 0 1077 C0 721.59 0 366.18 0 0 Z " fill="#E5EBEE" transform="translate(0,3)"/>
</svg>
